<svg width="679" height="103" viewBox="0 0 679 103" fill="none" xmlns="http://www.w3.org/2000/svg">
<g id="Frame 35">
<path id="Submit" d="M297.535 31.196C296.229 31.196 295.053 30.972 294.007 30.524C292.962 30.0573 292.141 29.404 291.543 28.564C290.946 27.724 290.647 26.744 290.647 25.624H294.063C294.138 26.464 294.465 27.1547 295.043 27.696C295.641 28.2373 296.471 28.508 297.535 28.508C298.637 28.508 299.495 28.2467 300.111 27.724C300.727 27.1827 301.035 26.492 301.035 25.652C301.035 24.9987 300.839 24.4667 300.447 24.056C300.074 23.6453 299.598 23.328 299.019 23.104C298.459 22.88 297.675 22.6373 296.667 22.376C295.398 22.04 294.362 21.704 293.559 21.368C292.775 21.0133 292.103 20.472 291.543 19.744C290.983 19.016 290.703 18.0453 290.703 16.832C290.703 15.712 290.983 14.732 291.543 13.892C292.103 13.052 292.887 12.408 293.895 11.96C294.903 11.512 296.07 11.288 297.395 11.288C299.281 11.288 300.821 11.764 302.015 12.716C303.229 13.6493 303.901 14.9373 304.031 16.58H300.503C300.447 15.8707 300.111 15.264 299.495 14.76C298.879 14.256 298.067 14.004 297.059 14.004C296.145 14.004 295.398 14.2373 294.819 14.704C294.241 15.1707 293.951 15.8427 293.951 16.72C293.951 17.3173 294.129 17.812 294.483 18.204C294.857 18.5773 295.323 18.876 295.883 19.1C296.443 19.324 297.209 19.5667 298.179 19.828C299.467 20.1827 300.513 20.5373 301.315 20.892C302.137 21.2467 302.827 21.7973 303.387 22.544C303.966 23.272 304.255 24.252 304.255 25.484C304.255 26.4733 303.985 27.4067 303.443 28.284C302.921 29.1613 302.146 29.8707 301.119 30.412C300.111 30.9347 298.917 31.196 297.535 31.196ZM321.994 15.572V31H318.802V29.18C318.298 29.8147 317.635 30.3187 316.814 30.692C316.011 31.0467 315.153 31.224 314.238 31.224C313.025 31.224 311.933 30.972 310.962 30.468C310.01 29.964 309.254 29.2173 308.694 28.228C308.153 27.2387 307.882 26.044 307.882 24.644V15.572H311.046V24.168C311.046 25.5493 311.391 26.6133 312.082 27.36C312.773 28.088 313.715 28.452 314.91 28.452C316.105 28.452 317.047 28.088 317.738 27.36C318.447 26.6133 318.802 25.5493 318.802 24.168V15.572H321.994ZM329.397 17.868C329.939 17.1213 330.676 16.5147 331.609 16.048C332.561 15.5627 333.616 15.32 334.773 15.32C336.136 15.32 337.368 15.6467 338.469 16.3C339.571 16.9533 340.439 17.8867 341.073 19.1C341.708 20.2947 342.025 21.6667 342.025 23.216C342.025 24.7653 341.708 26.156 341.073 27.388C340.439 28.6013 339.561 29.5533 338.441 30.244C337.34 30.916 336.117 31.252 334.773 31.252C333.579 31.252 332.515 31.0187 331.581 30.552C330.667 30.0853 329.939 29.488 329.397 28.76V31H326.205V10.28H329.397V17.868ZM338.777 23.216C338.777 22.152 338.553 21.2373 338.105 20.472C337.676 19.688 337.097 19.1 336.369 18.708C335.66 18.2973 334.895 18.092 334.073 18.092C333.271 18.092 332.505 18.2973 331.777 18.708C331.068 19.1187 330.489 19.716 330.041 20.5C329.612 21.284 329.397 22.208 329.397 23.272C329.397 24.336 329.612 25.2693 330.041 26.072C330.489 26.856 331.068 27.4533 331.777 27.864C332.505 28.2747 333.271 28.48 334.073 28.48C334.895 28.48 335.66 28.2747 336.369 27.864C337.097 27.4347 337.676 26.8187 338.105 26.016C338.553 25.2133 338.777 24.28 338.777 23.216ZM363.858 15.32C365.071 15.32 366.154 15.572 367.106 16.076C368.077 16.58 368.833 17.3267 369.374 18.316C369.934 19.3053 370.214 20.5 370.214 21.9V31H367.05V22.376C367.05 20.9947 366.705 19.94 366.014 19.212C365.323 18.4653 364.381 18.092 363.186 18.092C361.991 18.092 361.039 18.4653 360.33 19.212C359.639 19.94 359.294 20.9947 359.294 22.376V31H356.13V22.376C356.13 20.9947 355.785 19.94 355.094 19.212C354.403 18.4653 353.461 18.092 352.266 18.092C351.071 18.092 350.119 18.4653 349.41 19.212C348.719 19.94 348.374 20.9947 348.374 22.376V31H345.182V15.572H348.374V17.336C348.897 16.7013 349.559 16.2067 350.362 15.852C351.165 15.4973 352.023 15.32 352.938 15.32C354.17 15.32 355.271 15.5813 356.242 16.104C357.213 16.6267 357.959 17.3827 358.482 18.372C358.949 17.4387 359.677 16.7013 360.666 16.16C361.655 15.6 362.719 15.32 363.858 15.32ZM375.9 13.528C375.321 13.528 374.836 13.332 374.444 12.94C374.052 12.548 373.856 12.0627 373.856 11.484C373.856 10.9053 374.052 10.42 374.444 10.028C374.836 9.636 375.321 9.44 375.9 9.44C376.46 9.44 376.936 9.636 377.328 10.028C377.72 10.42 377.916 10.9053 377.916 11.484C377.916 12.0627 377.72 12.548 377.328 12.94C376.936 13.332 376.46 13.528 375.9 13.528ZM377.468 15.572V31H374.276V15.572H377.468ZM385.383 18.176V26.716C385.383 27.2947 385.513 27.7147 385.775 27.976C386.055 28.2187 386.521 28.34 387.175 28.34H389.135V31H386.615C385.177 31 384.076 30.664 383.311 29.992C382.545 29.32 382.163 28.228 382.163 26.716V18.176H380.343V15.572H382.163V11.736H385.383V15.572H389.135V18.176H385.383Z" fill="#FFFAFA"/>
<path id="Fill out the form and share your idea with us" d="M89.5696 76.272V78.048H82.2976V83.688H88.2016V85.464H82.2976V93H80.1136V76.272H89.5696ZM93.3354 77.712C92.9194 77.712 92.5674 77.568 92.2794 77.28C91.9914 76.992 91.8474 76.64 91.8474 76.224C91.8474 75.808 91.9914 75.456 92.2794 75.168C92.5674 74.88 92.9194 74.736 93.3354 74.736C93.7354 74.736 94.0714 74.88 94.3434 75.168C94.6314 75.456 94.7754 75.808 94.7754 76.224C94.7754 76.64 94.6314 76.992 94.3434 77.28C94.0714 77.568 93.7354 77.712 93.3354 77.712ZM94.3914 79.848V93H92.2074V79.848H94.3914ZM100.298 75.24V93H98.1136V75.24H100.298ZM106.204 75.24V93H104.02V75.24H106.204ZM122.061 93.216C120.829 93.216 119.709 92.936 118.701 92.376C117.709 91.816 116.925 91.024 116.349 90C115.789 88.96 115.509 87.76 115.509 86.4C115.509 85.056 115.797 83.872 116.373 82.848C116.965 81.808 117.765 81.016 118.773 80.472C119.781 79.912 120.909 79.632 122.157 79.632C123.405 79.632 124.533 79.912 125.541 80.472C126.549 81.016 127.341 81.8 127.917 82.824C128.509 83.848 128.805 85.04 128.805 86.4C128.805 87.76 128.501 88.96 127.893 90C127.301 91.024 126.493 91.816 125.469 92.376C124.445 92.936 123.309 93.216 122.061 93.216ZM122.061 91.296C122.845 91.296 123.581 91.112 124.269 90.744C124.957 90.376 125.509 89.824 125.925 89.088C126.357 88.352 126.573 87.456 126.573 86.4C126.573 85.344 126.365 84.448 125.949 83.712C125.533 82.976 124.989 82.432 124.317 82.08C123.645 81.712 122.917 81.528 122.133 81.528C121.333 81.528 120.597 81.712 119.925 82.08C119.269 82.432 118.741 82.976 118.341 83.712C117.941 84.448 117.741 85.344 117.741 86.4C117.741 87.472 117.933 88.376 118.317 89.112C118.717 89.848 119.245 90.4 119.901 90.768C120.557 91.12 121.277 91.296 122.061 91.296ZM143.34 79.848V93H141.156V91.056C140.74 91.728 140.156 92.256 139.404 92.64C138.668 93.008 137.852 93.192 136.956 93.192C135.932 93.192 135.012 92.984 134.196 92.568C133.38 92.136 132.732 91.496 132.252 90.648C131.788 89.8 131.556 88.768 131.556 87.552V79.848H133.716V87.264C133.716 88.56 134.044 89.56 134.7 90.264C135.356 90.952 136.252 91.296 137.388 91.296C138.556 91.296 139.476 90.936 140.148 90.216C140.82 89.496 141.156 88.448 141.156 87.072V79.848H143.34ZM149.692 81.648V89.4C149.692 90.04 149.828 90.496 150.1 90.768C150.372 91.024 150.844 91.152 151.516 91.152H153.124V93H151.156C149.94 93 149.028 92.72 148.42 92.16C147.812 91.6 147.508 90.68 147.508 89.4V81.648H145.804V79.848H147.508V76.536H149.692V79.848H153.124V81.648H149.692ZM164.832 81.648V89.4C164.832 90.04 164.968 90.496 165.24 90.768C165.512 91.024 165.984 91.152 166.656 91.152H168.264V93H166.296C165.08 93 164.168 92.72 163.56 92.16C162.952 91.6 162.648 90.68 162.648 89.4V81.648H160.944V79.848H162.648V76.536H164.832V79.848H168.264V81.648H164.832ZM177.439 79.608C178.431 79.608 179.327 79.824 180.127 80.256C180.927 80.672 181.551 81.304 181.999 82.152C182.463 83 182.695 84.032 182.695 85.248V93H180.535V85.56C180.535 84.248 180.207 83.248 179.551 82.56C178.895 81.856 177.999 81.504 176.863 81.504C175.711 81.504 174.791 81.864 174.103 82.584C173.431 83.304 173.095 84.352 173.095 85.728V93H170.911V75.24H173.095V81.72C173.527 81.048 174.119 80.528 174.871 80.16C175.639 79.792 176.495 79.608 177.439 79.608ZM198.262 85.92C198.262 86.336 198.238 86.776 198.19 87.24H187.678C187.758 88.536 188.198 89.552 188.998 90.288C189.814 91.008 190.798 91.368 191.95 91.368C192.894 91.368 193.678 91.152 194.302 90.72C194.942 90.272 195.39 89.68 195.646 88.944H197.998C197.646 90.208 196.942 91.24 195.886 92.04C194.83 92.824 193.518 93.216 191.95 93.216C190.702 93.216 189.582 92.936 188.59 92.376C187.614 91.816 186.846 91.024 186.286 90C185.726 88.96 185.446 87.76 185.446 86.4C185.446 85.04 185.718 83.848 186.262 82.824C186.806 81.8 187.566 81.016 188.542 80.472C189.534 79.912 190.67 79.632 191.95 79.632C193.198 79.632 194.302 79.904 195.262 80.448C196.222 80.992 196.958 81.744 197.47 82.704C197.998 83.648 198.262 84.72 198.262 85.92ZM196.006 85.464C196.006 84.632 195.822 83.92 195.454 83.328C195.086 82.72 194.582 82.264 193.942 81.96C193.318 81.64 192.622 81.48 191.854 81.48C190.75 81.48 189.806 81.832 189.022 82.536C188.254 83.24 187.814 84.216 187.702 85.464H196.006ZM212.895 81.648H210.135V93H207.951V81.648H206.247V79.848H207.951V78.912C207.951 77.44 208.327 76.368 209.079 75.696C209.847 75.008 211.071 74.664 212.751 74.664V76.488C211.791 76.488 211.111 76.68 210.711 77.064C210.327 77.432 210.135 78.048 210.135 78.912V79.848H212.895V81.648ZM221.178 93.216C219.946 93.216 218.826 92.936 217.818 92.376C216.826 91.816 216.042 91.024 215.466 90C214.906 88.96 214.626 87.76 214.626 86.4C214.626 85.056 214.914 83.872 215.49 82.848C216.082 81.808 216.882 81.016 217.89 80.472C218.898 79.912 220.026 79.632 221.274 79.632C222.522 79.632 223.65 79.912 224.658 80.472C225.666 81.016 226.458 81.8 227.034 82.824C227.626 83.848 227.922 85.04 227.922 86.4C227.922 87.76 227.618 88.96 227.01 90C226.418 91.024 225.61 91.816 224.586 92.376C223.562 92.936 222.426 93.216 221.178 93.216ZM221.178 91.296C221.962 91.296 222.698 91.112 223.386 90.744C224.074 90.376 224.626 89.824 225.042 89.088C225.474 88.352 225.69 87.456 225.69 86.4C225.69 85.344 225.482 84.448 225.066 83.712C224.65 82.976 224.106 82.432 223.434 82.08C222.762 81.712 222.034 81.528 221.25 81.528C220.45 81.528 219.714 81.712 219.042 82.08C218.386 82.432 217.858 82.976 217.458 83.712C217.058 84.448 216.858 85.344 216.858 86.4C216.858 87.472 217.05 88.376 217.434 89.112C217.834 89.848 218.362 90.4 219.018 90.768C219.674 91.12 220.394 91.296 221.178 91.296ZM232.977 81.984C233.361 81.232 233.905 80.648 234.609 80.232C235.329 79.816 236.201 79.608 237.225 79.608V81.864H236.649C234.201 81.864 232.977 83.192 232.977 85.848V93H230.793V79.848H232.977V81.984ZM255.562 79.608C256.586 79.608 257.498 79.824 258.298 80.256C259.098 80.672 259.73 81.304 260.194 82.152C260.658 83 260.89 84.032 260.89 85.248V93H258.73V85.56C258.73 84.248 258.402 83.248 257.746 82.56C257.106 81.856 256.234 81.504 255.13 81.504C253.994 81.504 253.09 81.872 252.418 82.608C251.746 83.328 251.41 84.376 251.41 85.752V93H249.25V85.56C249.25 84.248 248.922 83.248 248.266 82.56C247.626 81.856 246.754 81.504 245.65 81.504C244.514 81.504 243.61 81.872 242.938 82.608C242.266 83.328 241.93 84.376 241.93 85.752V93H239.746V79.848H241.93V81.744C242.362 81.056 242.938 80.528 243.658 80.16C244.394 79.792 245.202 79.608 246.082 79.608C247.186 79.608 248.162 79.856 249.01 80.352C249.858 80.848 250.49 81.576 250.906 82.536C251.274 81.608 251.882 80.888 252.73 80.376C253.578 79.864 254.522 79.608 255.562 79.608ZM270.055 86.376C270.055 85.032 270.327 83.856 270.871 82.848C271.415 81.824 272.159 81.032 273.103 80.472C274.063 79.912 275.127 79.632 276.295 79.632C277.447 79.632 278.447 79.88 279.295 80.376C280.143 80.872 280.775 81.496 281.191 82.248V79.848H283.399V93H281.191V90.552C280.759 91.32 280.111 91.96 279.247 92.472C278.399 92.968 277.407 93.216 276.271 93.216C275.103 93.216 274.047 92.928 273.103 92.352C272.159 91.776 271.415 90.968 270.871 89.928C270.327 88.888 270.055 87.704 270.055 86.376ZM281.191 86.4C281.191 85.408 280.991 84.544 280.591 83.808C280.191 83.072 279.647 82.512 278.959 82.128C278.287 81.728 277.543 81.528 276.727 81.528C275.911 81.528 275.167 81.72 274.495 82.104C273.823 82.488 273.287 83.048 272.887 83.784C272.487 84.52 272.287 85.384 272.287 86.376C272.287 87.384 272.487 88.264 272.887 89.016C273.287 89.752 273.823 90.32 274.495 90.72C275.167 91.104 275.911 91.296 276.727 91.296C277.543 91.296 278.287 91.104 278.959 90.72C279.647 90.32 280.191 89.752 280.591 89.016C280.991 88.264 281.191 87.392 281.191 86.4ZM293.498 79.608C295.098 79.608 296.394 80.096 297.386 81.072C298.378 82.032 298.874 83.424 298.874 85.248V93H296.714V85.56C296.714 84.248 296.386 83.248 295.73 82.56C295.074 81.856 294.178 81.504 293.042 81.504C291.89 81.504 290.97 81.864 290.282 82.584C289.61 83.304 289.274 84.352 289.274 85.728V93H287.09V79.848H289.274V81.72C289.706 81.048 290.29 80.528 291.026 80.16C291.778 79.792 292.602 79.608 293.498 79.608ZM301.626 86.376C301.626 85.032 301.898 83.856 302.442 82.848C302.986 81.824 303.73 81.032 304.674 80.472C305.634 79.912 306.706 79.632 307.89 79.632C308.914 79.632 309.866 79.872 310.746 80.352C311.626 80.816 312.298 81.432 312.762 82.2V75.24H314.97V93H312.762V90.528C312.33 91.312 311.69 91.96 310.842 92.472C309.994 92.968 309.002 93.216 307.866 93.216C306.698 93.216 305.634 92.928 304.674 92.352C303.73 91.776 302.986 90.968 302.442 89.928C301.898 88.888 301.626 87.704 301.626 86.376ZM312.762 86.4C312.762 85.408 312.562 84.544 312.162 83.808C311.762 83.072 311.218 82.512 310.53 82.128C309.858 81.728 309.114 81.528 308.298 81.528C307.482 81.528 306.738 81.72 306.066 82.104C305.394 82.488 304.858 83.048 304.458 83.784C304.058 84.52 303.858 85.384 303.858 86.376C303.858 87.384 304.058 88.264 304.458 89.016C304.858 89.752 305.394 90.32 306.066 90.72C306.738 91.104 307.482 91.296 308.298 91.296C309.114 91.296 309.858 91.104 310.53 90.72C311.218 90.32 311.762 89.752 312.162 89.016C312.562 88.264 312.762 87.392 312.762 86.4ZM329.715 93.216C328.707 93.216 327.803 93.048 327.003 92.712C326.203 92.36 325.571 91.88 325.107 91.272C324.643 90.648 324.387 89.936 324.339 89.136H326.595C326.659 89.792 326.963 90.328 327.507 90.744C328.067 91.16 328.795 91.368 329.691 91.368C330.523 91.368 331.179 91.184 331.659 90.816C332.139 90.448 332.379 89.984 332.379 89.424C332.379 88.848 332.123 88.424 331.611 88.152C331.099 87.864 330.307 87.584 329.235 87.312C328.259 87.056 327.459 86.8 326.835 86.544C326.227 86.272 325.699 85.88 325.251 85.368C324.819 84.84 324.603 84.152 324.603 83.304C324.603 82.632 324.803 82.016 325.203 81.456C325.603 80.896 326.171 80.456 326.907 80.136C327.643 79.8 328.483 79.632 329.427 79.632C330.883 79.632 332.059 80 332.955 80.736C333.851 81.472 334.331 82.48 334.395 83.76H332.211C332.163 83.072 331.883 82.52 331.371 82.104C330.875 81.688 330.203 81.48 329.355 81.48C328.571 81.48 327.947 81.648 327.483 81.984C327.019 82.32 326.787 82.76 326.787 83.304C326.787 83.736 326.923 84.096 327.195 84.384C327.483 84.656 327.835 84.88 328.251 85.056C328.683 85.216 329.275 85.4 330.027 85.608C330.971 85.864 331.739 86.12 332.331 86.376C332.923 86.616 333.427 86.984 333.843 87.48C334.275 87.976 334.499 88.624 334.515 89.424C334.515 90.144 334.315 90.792 333.915 91.368C333.515 91.944 332.947 92.4 332.211 92.736C331.491 93.056 330.659 93.216 329.715 93.216ZM344.126 79.608C345.118 79.608 346.014 79.824 346.814 80.256C347.614 80.672 348.238 81.304 348.686 82.152C349.15 83 349.382 84.032 349.382 85.248V93H347.222V85.56C347.222 84.248 346.894 83.248 346.238 82.56C345.582 81.856 344.686 81.504 343.55 81.504C342.398 81.504 341.478 81.864 340.79 82.584C340.118 83.304 339.782 84.352 339.782 85.728V93H337.598V75.24H339.782V81.72C340.214 81.048 340.806 80.528 341.558 80.16C342.326 79.792 343.182 79.608 344.126 79.608ZM352.134 86.376C352.134 85.032 352.406 83.856 352.95 82.848C353.494 81.824 354.238 81.032 355.182 80.472C356.142 79.912 357.206 79.632 358.374 79.632C359.526 79.632 360.526 79.88 361.374 80.376C362.222 80.872 362.854 81.496 363.27 82.248V79.848H365.478V93H363.27V90.552C362.838 91.32 362.19 91.96 361.326 92.472C360.478 92.968 359.486 93.216 358.35 93.216C357.182 93.216 356.126 92.928 355.182 92.352C354.238 91.776 353.494 90.968 352.95 89.928C352.406 88.888 352.134 87.704 352.134 86.376ZM363.27 86.4C363.27 85.408 363.07 84.544 362.67 83.808C362.27 83.072 361.726 82.512 361.038 82.128C360.366 81.728 359.622 81.528 358.806 81.528C357.99 81.528 357.246 81.72 356.574 82.104C355.902 82.488 355.366 83.048 354.966 83.784C354.566 84.52 354.366 85.384 354.366 86.376C354.366 87.384 354.566 88.264 354.966 89.016C355.366 89.752 355.902 90.32 356.574 90.72C357.246 91.104 357.99 91.296 358.806 91.296C359.622 91.296 360.366 91.104 361.038 90.72C361.726 90.32 362.27 89.752 362.67 89.016C363.07 88.264 363.27 87.392 363.27 86.4ZM371.352 81.984C371.736 81.232 372.28 80.648 372.984 80.232C373.704 79.816 374.576 79.608 375.6 79.608V81.864H375.024C372.576 81.864 371.352 83.192 371.352 85.848V93H369.168V79.848H371.352V81.984ZM390.121 85.92C390.121 86.336 390.097 86.776 390.049 87.24H379.537C379.617 88.536 380.057 89.552 380.857 90.288C381.673 91.008 382.657 91.368 383.809 91.368C384.753 91.368 385.537 91.152 386.161 90.72C386.801 90.272 387.249 89.68 387.505 88.944H389.857C389.505 90.208 388.801 91.24 387.745 92.04C386.689 92.824 385.377 93.216 383.809 93.216C382.561 93.216 381.441 92.936 380.449 92.376C379.473 91.816 378.705 91.024 378.145 90C377.585 88.96 377.305 87.76 377.305 86.4C377.305 85.04 377.577 83.848 378.121 82.824C378.665 81.8 379.425 81.016 380.401 80.472C381.393 79.912 382.529 79.632 383.809 79.632C385.057 79.632 386.161 79.904 387.121 80.448C388.081 80.992 388.817 81.744 389.329 82.704C389.857 83.648 390.121 84.72 390.121 85.92ZM387.865 85.464C387.865 84.632 387.681 83.92 387.313 83.328C386.945 82.72 386.441 82.264 385.801 81.96C385.177 81.64 384.481 81.48 383.713 81.48C382.609 81.48 381.665 81.832 380.881 82.536C380.113 83.24 379.673 84.216 379.561 85.464H387.865ZM410.731 79.848L402.811 99.192H400.555L403.147 92.856L397.843 79.848H400.267L404.395 90.504L408.475 79.848H410.731ZM418.662 93.216C417.43 93.216 416.31 92.936 415.302 92.376C414.31 91.816 413.526 91.024 412.95 90C412.39 88.96 412.11 87.76 412.11 86.4C412.11 85.056 412.398 83.872 412.974 82.848C413.566 81.808 414.366 81.016 415.374 80.472C416.382 79.912 417.51 79.632 418.758 79.632C420.006 79.632 421.134 79.912 422.142 80.472C423.15 81.016 423.942 81.8 424.518 82.824C425.11 83.848 425.406 85.04 425.406 86.4C425.406 87.76 425.102 88.96 424.494 90C423.902 91.024 423.094 91.816 422.07 92.376C421.046 92.936 419.91 93.216 418.662 93.216ZM418.662 91.296C419.446 91.296 420.182 91.112 420.87 90.744C421.558 90.376 422.11 89.824 422.526 89.088C422.958 88.352 423.174 87.456 423.174 86.4C423.174 85.344 422.966 84.448 422.55 83.712C422.134 82.976 421.59 82.432 420.918 82.08C420.246 81.712 419.518 81.528 418.734 81.528C417.934 81.528 417.198 81.712 416.526 82.08C415.87 82.432 415.342 82.976 414.942 83.712C414.542 84.448 414.342 85.344 414.342 86.4C414.342 87.472 414.534 88.376 414.918 89.112C415.318 89.848 415.846 90.4 416.502 90.768C417.158 91.12 417.878 91.296 418.662 91.296ZM439.942 79.848V93H437.758V91.056C437.342 91.728 436.758 92.256 436.006 92.64C435.27 93.008 434.454 93.192 433.558 93.192C432.534 93.192 431.614 92.984 430.798 92.568C429.982 92.136 429.334 91.496 428.854 90.648C428.39 89.8 428.158 88.768 428.158 87.552V79.848H430.318V87.264C430.318 88.56 430.646 89.56 431.302 90.264C431.958 90.952 432.854 91.296 433.99 91.296C435.158 91.296 436.078 90.936 436.75 90.216C437.422 89.496 437.758 88.448 437.758 87.072V79.848H439.942ZM445.813 81.984C446.197 81.232 446.741 80.648 447.445 80.232C448.165 79.816 449.037 79.608 450.061 79.608V81.864H449.485C447.037 81.864 445.813 83.192 445.813 85.848V93H443.629V79.848H445.813V81.984ZM460.109 77.712C459.693 77.712 459.341 77.568 459.053 77.28C458.765 76.992 458.621 76.64 458.621 76.224C458.621 75.808 458.765 75.456 459.053 75.168C459.341 74.88 459.693 74.736 460.109 74.736C460.509 74.736 460.845 74.88 461.117 75.168C461.405 75.456 461.549 75.808 461.549 76.224C461.549 76.64 461.405 76.992 461.117 77.28C460.845 77.568 460.509 77.712 460.109 77.712ZM461.165 79.848V93H458.981V79.848H461.165ZM464.071 86.376C464.071 85.032 464.343 83.856 464.887 82.848C465.431 81.824 466.175 81.032 467.119 80.472C468.079 79.912 469.151 79.632 470.335 79.632C471.359 79.632 472.311 79.872 473.191 80.352C474.071 80.816 474.743 81.432 475.207 82.2V75.24H477.415V93H475.207V90.528C474.775 91.312 474.135 91.96 473.287 92.472C472.439 92.968 471.447 93.216 470.311 93.216C469.143 93.216 468.079 92.928 467.119 92.352C466.175 91.776 465.431 90.968 464.887 89.928C464.343 88.888 464.071 87.704 464.071 86.376ZM475.207 86.4C475.207 85.408 475.007 84.544 474.607 83.808C474.207 83.072 473.663 82.512 472.975 82.128C472.303 81.728 471.559 81.528 470.743 81.528C469.927 81.528 469.183 81.72 468.511 82.104C467.839 82.488 467.303 83.048 466.903 83.784C466.503 84.52 466.303 85.384 466.303 86.376C466.303 87.384 466.503 88.264 466.903 89.016C467.303 89.752 467.839 90.32 468.511 90.72C469.183 91.104 469.927 91.296 470.743 91.296C471.559 91.296 472.303 91.104 472.975 90.72C473.663 90.32 474.207 89.752 474.607 89.016C475.007 88.264 475.207 87.392 475.207 86.4ZM493.106 85.92C493.106 86.336 493.082 86.776 493.034 87.24H482.522C482.602 88.536 483.042 89.552 483.842 90.288C484.658 91.008 485.642 91.368 486.794 91.368C487.738 91.368 488.522 91.152 489.146 90.72C489.786 90.272 490.234 89.68 490.49 88.944H492.842C492.49 90.208 491.786 91.24 490.73 92.04C489.674 92.824 488.362 93.216 486.794 93.216C485.546 93.216 484.426 92.936 483.434 92.376C482.458 91.816 481.69 91.024 481.13 90C480.57 88.96 480.29 87.76 480.29 86.4C480.29 85.04 480.562 83.848 481.106 82.824C481.65 81.8 482.41 81.016 483.386 80.472C484.378 79.912 485.514 79.632 486.794 79.632C488.042 79.632 489.146 79.904 490.106 80.448C491.066 80.992 491.802 81.744 492.314 82.704C492.842 83.648 493.106 84.72 493.106 85.92ZM490.85 85.464C490.85 84.632 490.666 83.92 490.298 83.328C489.93 82.72 489.426 82.264 488.786 81.96C488.162 81.64 487.466 81.48 486.698 81.48C485.594 81.48 484.65 81.832 483.866 82.536C483.098 83.24 482.658 84.216 482.546 85.464H490.85ZM495.173 86.376C495.173 85.032 495.445 83.856 495.989 82.848C496.533 81.824 497.277 81.032 498.221 80.472C499.181 79.912 500.245 79.632 501.413 79.632C502.565 79.632 503.565 79.88 504.413 80.376C505.261 80.872 505.893 81.496 506.309 82.248V79.848H508.517V93H506.309V90.552C505.877 91.32 505.229 91.96 504.365 92.472C503.517 92.968 502.525 93.216 501.389 93.216C500.221 93.216 499.165 92.928 498.221 92.352C497.277 91.776 496.533 90.968 495.989 89.928C495.445 88.888 495.173 87.704 495.173 86.376ZM506.309 86.4C506.309 85.408 506.109 84.544 505.709 83.808C505.309 83.072 504.765 82.512 504.077 82.128C503.405 81.728 502.661 81.528 501.845 81.528C501.029 81.528 500.285 81.72 499.613 82.104C498.941 82.488 498.405 83.048 498.005 83.784C497.605 84.52 497.405 85.384 497.405 86.376C497.405 87.384 497.605 88.264 498.005 89.016C498.405 89.752 498.941 90.32 499.613 90.72C500.285 91.104 501.029 91.296 501.845 91.296C502.661 91.296 503.405 91.104 504.077 90.72C504.765 90.32 505.309 89.752 505.709 89.016C506.109 88.264 506.309 87.392 506.309 86.4ZM536.126 79.848L532.022 93H529.766L526.598 82.56L523.43 93H521.174L517.046 79.848H519.278L522.302 90.888L525.566 79.848H527.798L530.99 90.912L533.966 79.848H536.126ZM539.421 77.712C539.005 77.712 538.653 77.568 538.365 77.28C538.077 76.992 537.933 76.64 537.933 76.224C537.933 75.808 538.077 75.456 538.365 75.168C538.653 74.88 539.005 74.736 539.421 74.736C539.821 74.736 540.157 74.88 540.429 75.168C540.717 75.456 540.861 75.808 540.861 76.224C540.861 76.64 540.717 76.992 540.429 77.28C540.157 77.568 539.821 77.712 539.421 77.712ZM540.477 79.848V93H538.293V79.848H540.477ZM546.864 81.648V89.4C546.864 90.04 547 90.496 547.272 90.768C547.544 91.024 548.016 91.152 548.688 91.152H550.296V93H548.328C547.112 93 546.2 92.72 545.592 92.16C544.984 91.6 544.68 90.68 544.68 89.4V81.648H542.976V79.848H544.68V76.536H546.864V79.848H550.296V81.648H546.864ZM559.47 79.608C560.462 79.608 561.358 79.824 562.158 80.256C562.958 80.672 563.582 81.304 564.03 82.152C564.494 83 564.726 84.032 564.726 85.248V93H562.566V85.56C562.566 84.248 562.238 83.248 561.582 82.56C560.926 81.856 560.03 81.504 558.894 81.504C557.742 81.504 556.822 81.864 556.134 82.584C555.462 83.304 555.126 84.352 555.126 85.728V93H552.942V75.24H555.126V81.72C555.558 81.048 556.15 80.528 556.902 80.16C557.67 79.792 558.526 79.608 559.47 79.608ZM586.356 79.848V93H584.172V91.056C583.756 91.728 583.172 92.256 582.42 92.64C581.684 93.008 580.868 93.192 579.972 93.192C578.948 93.192 578.028 92.984 577.212 92.568C576.396 92.136 575.748 91.496 575.268 90.648C574.804 89.8 574.572 88.768 574.572 87.552V79.848H576.732V87.264C576.732 88.56 577.06 89.56 577.716 90.264C578.372 90.952 579.268 91.296 580.404 91.296C581.572 91.296 582.492 90.936 583.164 90.216C583.836 89.496 584.172 88.448 584.172 87.072V79.848H586.356ZM594.699 93.216C593.691 93.216 592.787 93.048 591.987 92.712C591.187 92.36 590.555 91.88 590.091 91.272C589.627 90.648 589.371 89.936 589.323 89.136H591.579C591.643 89.792 591.947 90.328 592.491 90.744C593.051 91.16 593.779 91.368 594.675 91.368C595.507 91.368 596.163 91.184 596.643 90.816C597.123 90.448 597.363 89.984 597.363 89.424C597.363 88.848 597.107 88.424 596.595 88.152C596.083 87.864 595.291 87.584 594.219 87.312C593.243 87.056 592.443 86.8 591.819 86.544C591.211 86.272 590.683 85.88 590.235 85.368C589.803 84.84 589.587 84.152 589.587 83.304C589.587 82.632 589.787 82.016 590.187 81.456C590.587 80.896 591.155 80.456 591.891 80.136C592.627 79.8 593.467 79.632 594.411 79.632C595.867 79.632 597.043 80 597.939 80.736C598.835 81.472 599.315 82.48 599.379 83.76H597.195C597.147 83.072 596.867 82.52 596.355 82.104C595.859 81.688 595.187 81.48 594.339 81.48C593.555 81.48 592.931 81.648 592.467 81.984C592.003 82.32 591.771 82.76 591.771 83.304C591.771 83.736 591.907 84.096 592.179 84.384C592.467 84.656 592.819 84.88 593.235 85.056C593.667 85.216 594.259 85.4 595.011 85.608C595.955 85.864 596.723 86.12 597.315 86.376C597.907 86.616 598.411 86.984 598.827 87.48C599.259 87.976 599.483 88.624 599.499 89.424C599.499 90.144 599.299 90.792 598.899 91.368C598.499 91.944 597.931 92.4 597.195 92.736C596.475 93.056 595.643 93.216 594.699 93.216Z" fill="#A5A5A5"/>
</g>
</svg>
