<svg width="71" height="50" viewBox="0 0 71 50" fill="none" xmlns="http://www.w3.org/2000/svg">
<g clip-path="url(#clip0_187_31)">
<path d="M28.2386 35.5519V14.4481L46.7954 25.0005L28.2386 35.5519ZM69.5163 7.80766C68.6998 4.73428 66.2938 2.31412 63.2392 1.49274C57.7024 2.25921e-06 35.5 1.49012e-06 35.5 1.49012e-06C35.5 1.49012e-06 13.2977 2.25921e-06 7.76074 1.49274C4.70601 2.31412 2.30006 4.73428 1.48363 7.80766C0 13.3779 0 25 0 25C0 25 0 36.6219 1.48363 42.1924C2.30006 45.2657 4.70601 47.6859 7.76074 48.5076C13.2977 50 35.5 50 35.5 50C35.5 50 57.7024 50 63.2392 48.5076C66.2938 47.6859 68.6998 45.2657 69.5163 42.1924C71 36.6219 71 25 71 25C71 25 71 13.3779 69.5163 7.80766Z" fill="white"/>
</g>
<defs>
<clipPath id="clip0_187_31">
<rect width="71" height="50" fill="white"/>
</clipPath>
</defs>
</svg>
